<svg width="44" height="45" viewBox="0 0 44 45" fill="none" xmlns="http://www.w3.org/2000/svg">
<path d="M22 39.375C19.6844 37.3549 17.538 35.1403 15.5834 32.7544C12.65 29.1712 9.16669 23.835 9.16669 18.75C9.16542 16.153 9.91745 13.6141 11.3276 11.4544C12.7378 9.29475 14.7427 7.61147 17.0886 6.61761C19.4346 5.62375 22.0161 5.36397 24.5064 5.87116C26.9967 6.37835 29.284 7.62971 31.0787 9.46686C32.2736 10.6835 33.2207 12.1304 33.8651 13.7238C34.5096 15.3173 34.8387 17.0256 34.8334 18.75C34.8334 23.835 31.35 29.1712 28.4167 32.7544C26.462 35.1403 24.3156 37.3549 22 39.375ZM22 13.125C20.5413 13.125 19.1424 13.7176 18.1109 14.7725C17.0795 15.8274 16.5 17.2581 16.5 18.75C16.5 20.2418 17.0795 21.6726 18.1109 22.7275C19.1424 23.7824 20.5413 24.375 22 24.375C23.4587 24.375 24.8577 23.7824 25.8891 22.7275C26.9206 21.6726 27.5 20.2418 27.5 18.75C27.5 17.2581 26.9206 15.8274 25.8891 14.7725C24.8577 13.7176 23.4587 13.125 22 13.125Z" fill="#FA4A0C"/>
</svg>
